<svg width="32" height="32" viewBox="0 0 32 32" fill="none" xmlns="http://www.w3.org/2000/svg">
<mask id="mask0_0_14" style="mask-type:alpha" maskUnits="userSpaceOnUse" x="0" y="0" width="32" height="32">
<rect width="32" height="32" fill="white"/>
</mask>
<g mask="url(#mask0_0_14)">
<circle cx="16.0013" cy="16.0013" r="13.3333" fill="#202020" fill-opacity="0.7"/>
<path fill-rule="evenodd" clip-rule="evenodd" d="M10.8948 11.0244C9.94493 11.0244 9.31291 10.3527 9.33247 9.52259C9.31291 8.65219 9.94492 8 10.9137 8C11.8832 8 12.4962 8.65219 12.5152 9.52259C12.5152 10.3527 11.8832 11.0244 10.8948 11.0244ZM9.41194 12.2108H12.4168V21.8788H9.41194V21.8794V12.2108Z" fill="white"/>
<path fill-rule="evenodd" clip-rule="evenodd" d="M14.7456 12.2121H17.3556L17.4943 13.5367H17.5536C17.9491 12.9236 18.9375 11.9951 20.5389 11.9951C22.5157 11.9951 23.9985 13.3001 23.9985 16.146V21.8807H20.9937V16.5226C20.9937 15.2762 20.5591 14.4266 19.4717 14.4266C18.641 14.4266 18.1472 15 17.9497 15.5531C17.8703 15.7512 17.8311 16.0274 17.8311 16.3049V21.8807H14.8263V15.2964H14.8251C14.8251 14.0904 14.7853 13.0623 14.7456 12.2121Z" fill="white"/>
</g>
</svg>
