<svg width="113" height="24" viewBox="0 0 113 24" fill="none" xmlns="http://www.w3.org/2000/svg">
<path fill-rule="evenodd" clip-rule="evenodd" d="M30.3069 3.72035H33.211V10.9924H41.4294V3.72035H44.3215V21.0004H41.4294V13.7044H33.211V21.0004H30.3069V3.72035ZM47.9409 3.72035H50.845V21.0004H47.9409V3.72035ZM58.4433 20.7724C57.4633 20.3724 56.5996 19.7884 55.8525 19.0204C55.1134 18.2524 54.535 17.3124 54.1173 16.2004C53.6995 15.0804 53.4907 13.8004 53.4907 12.3604C53.4907 10.4724 53.8441 8.86035 54.5511 7.52435C55.258 6.18035 56.2261 5.15235 57.4552 4.44035C58.6844 3.72035 60.0701 3.36035 61.6126 3.36035C63.7495 3.36035 65.4406 3.85635 66.6858 4.84835C67.939 5.83235 68.7866 7.21635 69.2284 9.00035L66.264 9.46835C65.9347 8.44435 65.3964 7.62835 64.6493 7.02035C63.9022 6.40435 62.9502 6.09635 61.7934 6.09635C60.6285 6.08035 59.6604 6.33235 58.8892 6.85235C58.118 7.37235 57.5356 8.10435 57.1419 9.04835C56.7563 9.99235 56.5635 11.0964 56.5635 12.3604C56.5635 13.6244 56.7563 14.7244 57.1419 15.6604C57.5275 16.5884 58.1059 17.3124 58.8772 17.8324C59.6564 18.3524 60.6285 18.6204 61.7934 18.6364C62.669 18.6444 63.4362 18.4884 64.095 18.1684C64.7537 17.8404 65.292 17.3484 65.7097 16.6924C66.1275 16.0284 66.4086 15.2004 66.5532 14.2084H63.4925V11.9404H69.6381C69.6542 12.0684 69.6663 12.2564 69.6743 12.5044C69.6823 12.7524 69.6863 12.9004 69.6863 12.9484C69.6863 14.5804 69.361 16.0324 68.7103 17.3044C68.0676 18.5684 67.1437 19.5604 65.9387 20.2804C64.7336 21.0004 63.2916 21.3604 61.6126 21.3604C60.4879 21.3604 59.4315 21.1644 58.4433 20.7724ZM72.1066 3.72035H75.0107V10.9924H83.2291V3.72035H86.1211V21.0004H83.2291V13.7044H75.0107V21.0004H72.1066V3.72035ZM89.7406 3.72035H92.6447V18.2884H100.309V21.0004H89.7406V3.72035ZM104.167 13.9204L98.2625 3.72035H101.649L105.637 10.6084L109.614 3.72035H113L107.107 13.9204V21.0004H104.167V13.9204Z" fill="white"/>
<path fill-rule="evenodd" clip-rule="evenodd" d="M0 0V24H11.0736V6.97998L5.90015 12.4827L4.51889 11.0127L12.0504 3L19.5818 11.0127L18.2006 12.4827L13.0271 6.97998V24H24.1007V0H0Z" fill="#1F4ADF"/>
</svg>
