<svg width="32" height="32" viewBox="0 0 32 32" fill="none" xmlns="http://www.w3.org/2000/svg">
<mask id="mask0_0_24" style="mask-type:alpha" maskUnits="userSpaceOnUse" x="0" y="0" width="32" height="32">
<rect width="32" height="32" fill="white"/>
</mask>
<g mask="url(#mask0_0_24)">
<circle cx="16.0013" cy="16.0013" r="13.3333" fill="#202020" fill-opacity="0.7"/>
<path fill-rule="evenodd" clip-rule="evenodd" d="M22.1148 11.3879C22.7926 10.9815 23.3131 10.3384 23.5579 9.57201C22.9243 9.94852 22.2209 10.221 21.4738 10.3688C20.8749 9.73094 20.0211 9.33203 19.0777 9.33203C17.265 9.33203 15.7952 10.8018 15.7952 12.6145C15.7952 12.8715 15.8245 13.1222 15.8805 13.3627C13.1522 13.2262 10.7337 11.9191 9.11459 9.93306C8.83194 10.4178 8.67036 10.9815 8.67036 11.5831C8.67036 12.7217 9.24898 13.7264 10.1305 14.3152C9.59189 14.2981 9.08633 14.1504 8.64316 13.9045V13.9456C8.64316 15.5364 9.77535 16.8627 11.276 17.1651C11.0009 17.2398 10.7108 17.2803 10.4116 17.2803C10.1999 17.2803 9.994 17.2595 9.79348 17.2211C10.2111 18.525 11.4238 19.4743 12.8599 19.501C11.7368 20.3809 10.3214 20.9062 8.78341 20.9062C8.51783 20.9062 8.25652 20.8907 8 20.8598C9.4527 21.7909 11.1779 22.3349 13.0317 22.3349C19.0691 22.3349 22.3708 17.3331 22.3708 12.9958C22.3708 12.8534 22.3681 12.7115 22.3612 12.5713C23.0033 12.1073 23.56 11.5292 24 10.8711C23.4118 11.1324 22.7787 11.3084 22.1148 11.3879Z" fill="white"/>
</g>
</svg>
